#!OML:ASF E:\VariousWalksJay\Project 1\Capture day 1\Session 1\Actor2.ASF
:FULLY-SPECIFIED
:DEGREES
984
root -7.31609 16.8807 40.7662 6.79231 -21.2024 -5.03076
lowerback -6.74792 0.523641 5.06246
upperback -5.21224 0.406142 -1.56772
thorax -1.57449 0.0250487 -4.44747
lowerneck -7.76618 -2.92742 -2.22219
upperneck 0.297755 -4.05319 10.5669
head 1.77646 -1.81135 3.70603
rclavicle 3.77691e-014 2.38542e-015
rhumerus 112.172 -28.3156 -91.9626
rradius 16.6336
rwrist -29.4799
rhand -20.4733 -7.65238
rfingers 7.12502
rthumb 5.8829 -37.5507
lclavicle 3.77691e-014 2.38542e-015
lhumerus -78.7138 -203.942 263.717
lradius 17.7257
lwrist 41.9578
lhand -25.0879 -1.96853
lfingers 7.12502
lthumb 1.42671 28.0065
rfemur -12.7782 -13.8485 25.751
rtibia 32.8048
rfoot -21.5483 5.03958
rtoes 8.93451
lfemur -8.303 4.39691 -14.6647
ltibia 26.7569
lfoot -22.2354 3.80226
ltoes -1.57178
985
root -7.32804 16.8741 40.7771 6.80645 -21.3287 -5.07238
lowerback -6.73066 0.626761 5.11208
upperback -5.27644 0.542042 -1.59675
thorax -1.6354 0.087886 -4.49889
lowerneck -7.79015 -2.98325 -2.2035
upperneck 0.351658 -4.13226 10.5108
head 1.80171 -1.84935 3.67893
rclavicle -9.19379e-014 6.36111e-015
rhumerus 116.049 -26.9277 -96.4696
rradius 15.407
rwrist -27.2986
rhand -21.6998 -7.63682
rfingers 7.12502
rthumb 4.69862 -37.5647
lclavicle -9.19379e-014 6.36111e-015
lhumerus -77.5699 -204.466 264.581
lradius 17.3951
lwrist 40.9276
lhand -24.2677 -2.06822
lfingers 7.12502
lthumb 2.21884 27.9
rfemur -12.7072 -14.0311 25.7702
rtibia 32.7794
rfoot -21.6337 5.33639
rtoes 9.17252
lfemur -8.22347 4.40589 -14.6072
ltibia 26.7826
lfoot -22.3959 3.8798
ltoes -1.441
986
root -7.33923 16.8682 40.7883 6.83533 -21.4229 -5.14154
lowerback -6.74356 0.720985 5.196
upperback -5.33327 0.6629 -1.62014
thorax -1.67338 0.143095 -4.56456
lowerneck -7.8087 -3.01958 -2.17887
upperneck 0.426838 -4.18787 10.4646
head 1.83148 -1.87501 3.65549
rclavicle -4.74101e-014 6.36111e-015
rhumerus 119.108 -25.8634 -99.7113
rradius 14.3609
rwrist -25.0179
rhand -22.5945 -7.77204
rfingers 7.12502
rthumb 3.83468 -37.7173
lclavicle -4.74101e-014 6.36111e-015
lhumerus -76.6094 -205.057 265.142
lradius 17.0576
lwrist 39.8939
lhand -23.8554 -2.49045
lfingers 7.12502
lthumb 2.61704 27.4732
rfemur -12.6356 -14.2389 25.8174
rtibia 32.7424
rfoot -21.6989 5.63294
rtoes 9.3937
lfemur -8.16711 4.41945 -14.5198
ltibia 26.8284
lfoot -22.546 3.92607
ltoes -1.32457
987
root -7.34987 16.8631 40.7988 6.86815 -21.4849 -5.2159
lowerback -6.77826 0.795552 5.28487
upperback -5.38409 0.756172 -1.63927
thorax -1.69595 0.184931 -4.62991
lowerneck -7.8297 -3.03426 -2.13071
upperneck 0.53574 -4.21876 10.401
head 1.86973 -1.88762 3.62271
rclavicle -1.64991e-014 3.97569e-015
rhumerus 120.86 -25.6656 -101.227
rradius 14.1429
rwrist -23.4575
rhand -23.242 -8.29451
rfingers 7.12502
rthumb 3.20941 -38.2501
lclavicle -1.64991e-014 3.97569e-015
lhumerus -75.7761 -205.701 265.524
lradius 16.7165
lwrist 38.8242
lhand -23.3065 -2.88
lfingers 7.12502
lthumb 3.14708 27.0765
rfemur -12.5639 -14.4263 25.8765
rtibia 32.6964
rfoot -21.7532 5.8787
rtoes 9.59908
lfemur -8.13313 4.43363 -14.4241
ltibia 26.891
lfoot -22.6831 3.94843
ltoes -1.22216
988
root -7.36012 16.8585 40.8083 6.90272 -21.5194 -5.30661
lowerback -6.82947 0.8458 5.38608
upperback -5.42332 0.815518 -1.64783
thorax -1.70115 0.210353 -4.69279
lowerneck -7.88505 -3.02079 -2.08034
upperneck 0.701448 -4.21743 10.3434
head 1.93099 -1.88149 3.59333
rclavicle -3.91606e-014 -1.27222e-014
rhumerus 122.266 -25.8123 -102.034
rradius 13.7513
rwrist -21.904
rhand -23.6894 -8.58047
rfingers 7.12502
rthumb 2.7773 -38.5421
lclavicle -3.91606e-014 -1.27222e-014
lhumerus -75.0023 -206.374 265.862
lradius 16.3744
lwrist 37.6973
lhand -22.8741 -3.06186
lfingers 7.12502
lthumb 3.56467 26.8881
rfemur -12.4869 -14.5614 25.9614
rtibia 32.6444
rfoot -21.8079 6.04116
rtoes 9.77524
lfemur -8.11063 4.44577 -14.3077
ltibia 26.9646
lfoot -22.8101 3.9543
ltoes -1.12699
